HIERARCHY
ROOT root
{
	OFFSET 0.000000 0.000000 0.000000
	CHANNELS 6 Xposition Yposition Zposition Xrotation Yrotation Zrotation
	JOINT butt_bone
	{
		OFFSET 0.000000 0.000000 0.954673
		CHANNELS 6 Xposition Yposition Zposition Xrotation Yrotation Zrotation
		JOINT leg_IK.L
		{
			OFFSET 0.181159 0.000000 -0.926388
			CHANNELS 6 Xposition Yposition Zposition Xrotation Yrotation Zrotation
			JOINT knee_IK.L
			{
				OFFSET -0.000000 -0.486035 0.440368
				CHANNELS 6 Xposition Yposition Zposition Xrotation Yrotation Zrotation
				End Site
				{
					OFFSET 0.000000 -0.200000 0.000000
				}
			}
		}
		JOINT leg_IK.R
		{
			OFFSET -0.181159 0.000000 -0.926388
			CHANNELS 6 Xposition Yposition Zposition Xrotation Yrotation Zrotation
			JOINT knee_IK.R
			{
				OFFSET 0.000000 -0.486035 0.440368
				CHANNELS 6 Xposition Yposition Zposition Xrotation Yrotation Zrotation
				End Site
				{
					OFFSET 0.000000 -0.200000 0.000000
				}
			}
		}
		JOINT body_IK
		{
			OFFSET 0.000000 0.000000 0.000000
			CHANNELS 6 Xposition Yposition Zposition Xrotation Yrotation Zrotation
			JOINT body_lower
			{
				OFFSET 0.000000 0.000000 0.000000
				CHANNELS 6 Xposition Yposition Zposition Xrotation Yrotation Zrotation
				JOINT body_upper
				{
					OFFSET 0.000000 0.000000 0.487856
					CHANNELS 3 Xrotation Yrotation Zrotation
					JOINT head
					{
						OFFSET 0.000000 0.000000 0.572354
						CHANNELS 6 Xposition Yposition Zposition Xrotation Yrotation Zrotation
						End Site
						{
							OFFSET 0.000000 0.000000 0.708649
						}
					}
				}
			}
			JOINT leg_upper.L
			{
				OFFSET 0.181159 0.000000 -0.050481
				CHANNELS 6 Xposition Yposition Zposition Xrotation Yrotation Zrotation
				JOINT leg_lower.L
				{
					OFFSET 0.000000 -0.012850 -0.435539
					CHANNELS 3 Xrotation Yrotation Zrotation
					End Site
					{
						OFFSET 0.000000 0.012851 -0.440368
					}
				}
			}
			JOINT leg_upper.R
			{
				OFFSET -0.181159 0.000000 -0.050481
				CHANNELS 6 Xposition Yposition Zposition Xrotation Yrotation Zrotation
				JOINT leg_lower.R
				{
					OFFSET -0.000000 -0.012850 -0.435539
					CHANNELS 3 Xrotation Yrotation Zrotation
					End Site
					{
						OFFSET -0.000000 0.012851 -0.440368
					}
				}
			}
			JOINT arm_upper.L
			{
				OFFSET 0.520560 -0.000000 0.869124
				CHANNELS 6 Xposition Yposition Zposition Xrotation Yrotation Zrotation
				JOINT arm_lower.L
				{
					OFFSET -0.000000 0.021959 -0.435539
					CHANNELS 3 Xrotation Yrotation Zrotation
					End Site
					{
						OFFSET -0.000000 -0.021959 -0.440368
					}
				}
			}
			JOINT arm_upper.R
			{
				OFFSET -0.520560 -0.000000 0.869124
				CHANNELS 6 Xposition Yposition Zposition Xrotation Yrotation Zrotation
				JOINT arm_lower.R
				{
					OFFSET 0.000000 0.021959 -0.435539
					CHANNELS 3 Xrotation Yrotation Zrotation
					End Site
					{
						OFFSET 0.000000 -0.021959 -0.440368
					}
				}
			}
			JOINT arm_IK.L
			{
				OFFSET 0.520560 -0.000000 -0.006783
				CHANNELS 6 Xposition Yposition Zposition Xrotation Yrotation Zrotation
				JOINT elbow_IK.L
				{
					OFFSET 0.000000 0.486035 0.440368
					CHANNELS 6 Xposition Yposition Zposition Xrotation Yrotation Zrotation
					End Site
					{
						OFFSET 0.000000 0.200000 0.000000
					}
				}
			}
			JOINT arm_IK.R
			{
				OFFSET -0.520560 -0.000000 -0.006783
				CHANNELS 6 Xposition Yposition Zposition Xrotation Yrotation Zrotation
				JOINT elbow_IK.R
				{
					OFFSET -0.000000 0.486035 0.440368
					CHANNELS 6 Xposition Yposition Zposition Xrotation Yrotation Zrotation
					End Site
					{
						OFFSET 0.000000 0.200000 0.000000
					}
				}
			}
		}
	}
}
MOTION
Frames: 5
Frame Time: 0.041667
0.000000 0.000000 0.000000 -0.000000 0.000000 0.000000 -0.000000 -0.000000 1.101456 0.000000 -0.000000 0.000000 0.194866 0.497697 -0.691462 47.770319 7.050867 18.269795 0.000000 -0.486035 0.440368 -0.000002 0.000000 -0.000002 -0.268891 -0.417344 -0.709280 -0.746236 1.185602 -9.064479 -0.000000 -0.486035 0.440368 0.000000 -0.000000 -0.000000 0.011071 0.006309 -0.039113 12.299402 0.637785 5.914116 -0.000000 0.000000 0.000000 -8.114417 -4.689263 3.928598 14.824789 -1.421644 -12.426208 0.016956 -0.034860 0.519297 -15.509618 1.194982 -6.416666 0.181159 0.000000 -0.050481 -2.595756 -10.609932 12.845429 56.008374 -0.000000 0.000007 -0.181159 0.000000 -0.050481 -75.371937 15.690527 -4.658922 58.384867 -0.000003 -0.000005 0.530607 0.011405 0.758483 -14.083369 -10.874862 -23.178899 -64.976225 -0.000006 0.000006 -0.519941 0.010242 0.774781 72.346211 13.821244 1.095120 -82.488782 0.000007 -0.000009 0.494832 -0.483866 0.243775 -70.323976 19.936354 -16.633300 0.000000 0.486035 0.440368 -0.000002 0.000000 -0.000000 -0.624785 0.321588 0.237686 -0.117592 -1.126934 9.746841 -0.000000 0.486035 0.440368 -0.000000 -0.000000 -0.000002 
0.000000 0.000000 0.000000 -0.000000 0.000000 0.000000 -0.000000 -0.000000 1.111279 0.000000 -0.000000 0.000000 0.192497 0.546250 -0.597981 64.120655 9.851491 19.442583 -0.000000 -0.486035 0.440368 0.000002 0.000000 0.000000 -0.270143 -0.453326 -0.753879 -6.109442 0.880262 -8.833189 -0.000000 -0.486035 0.440368 0.000000 -0.000000 -0.000000 0.011071 0.006309 -0.039113 12.299402 0.637785 5.914116 -0.000000 0.000000 0.000000 -8.428757 -5.134291 4.526346 14.791997 -1.633396 -13.621192 0.010211 -0.029281 0.534969 -15.586082 0.660441 -6.007308 0.181159 0.000000 -0.050481 0.368828 -12.917256 13.100379 65.502368 0.000004 0.000010 -0.181159 0.000000 -0.050481 -67.121649 14.705759 -7.721519 41.871867 -0.000000 -0.000006 0.527889 0.008039 0.790989 -19.424066 -7.806683 -23.766943 -55.403377 -0.000005 0.000006 -0.520107 0.007490 0.800136 70.349016 14.449059 2.089085 -72.561409 0.000007 -0.000008 0.477614 -0.522953 0.256560 -73.791513 19.944533 -16.055779 0.000000 0.486035 0.440368 0.000000 -0.000001 0.000000 -0.642189 0.373363 0.240033 4.368659 -1.333808 9.365435 -0.000000 0.486035 0.440368 0.000002 -0.000000 -0.000000 
0.000000 0.000000 0.000000 -0.000000 0.000000 0.000000 -0.000000 -0.000000 1.111279 0.000000 -0.000000 0.000000 0.192497 0.546250 -0.597981 64.120655 9.851491 19.442583 -0.000000 -0.486035 0.440368 0.000002 0.000000 0.000000 -0.270143 -0.453326 -0.753879 -6.109442 0.880262 -8.833189 -0.000000 -0.486035 0.440368 0.000000 -0.000000 -0.000000 0.011071 0.006309 -0.039113 12.299402 0.637785 5.914116 -0.000000 0.000000 0.000000 -8.428757 -5.134291 4.526346 14.791997 -1.633396 -13.621192 0.010211 -0.029281 0.534969 -15.586082 0.660441 -6.007308 0.181159 0.000000 -0.050481 0.368828 -12.917256 13.100379 65.502368 0.000004 0.000010 -0.181159 0.000000 -0.050481 -67.121649 14.705759 -7.721519 41.871867 -0.000000 -0.000006 0.527889 0.008039 0.790989 -19.424066 -7.806683 -23.766943 -55.403377 -0.000005 0.000006 -0.520107 0.007490 0.800136 70.349016 14.449059 2.089085 -72.561409 0.000007 -0.000008 0.477614 -0.522953 0.256560 -73.791513 19.944533 -16.055779 0.000000 0.486035 0.440368 0.000000 -0.000001 0.000000 -0.642189 0.373363 0.240033 4.368659 -1.333808 9.365435 -0.000000 0.486035 0.440368 0.000002 -0.000000 -0.000000 
0.000000 0.000000 0.000000 -0.000000 0.000000 0.000000 -0.000000 -0.000000 1.111279 0.000000 -0.000000 0.000000 0.192497 0.546250 -0.597981 64.120655 9.851491 19.442583 -0.000000 -0.486035 0.440368 0.000002 0.000000 0.000000 -0.270143 -0.453326 -0.753879 -6.109442 0.880262 -8.833189 -0.000000 -0.486035 0.440368 0.000000 -0.000000 -0.000000 0.011071 0.006309 -0.039113 12.299402 0.637785 5.914116 -0.000000 0.000000 0.000000 -8.428757 -5.134291 4.526346 14.791997 -1.633396 -13.621192 0.010211 -0.029281 0.534969 -15.586082 0.660441 -6.007308 0.181159 0.000000 -0.050481 0.368828 -12.917256 13.100379 65.502368 0.000004 0.000010 -0.181159 0.000000 -0.050481 -67.121649 14.705759 -7.721519 41.871867 -0.000000 -0.000006 0.527889 0.008039 0.790989 -19.424066 -7.806683 -23.766943 -55.403377 -0.000005 0.000006 -0.520107 0.007490 0.800136 70.349016 14.449059 2.089085 -72.561409 0.000007 -0.000008 0.477614 -0.522953 0.256560 -73.791513 19.944533 -16.055779 0.000000 0.486035 0.440368 0.000000 -0.000001 0.000000 -0.642189 0.373363 0.240033 4.368659 -1.333808 9.365435 -0.000000 0.486035 0.440368 0.000002 -0.000000 -0.000000 
0.000000 0.000000 0.000000 -0.000000 0.000000 0.000000 -0.000000 -0.000000 1.111279 0.000000 -0.000000 0.000000 0.192497 0.546250 -0.597981 64.120655 9.851491 19.442583 -0.000000 -0.486035 0.440368 0.000002 0.000000 0.000000 -0.270143 -0.453326 -0.753879 -6.109442 0.880262 -8.833189 -0.000000 -0.486035 0.440368 0.000000 -0.000000 -0.000000 0.011071 0.006309 -0.039113 12.299402 0.637785 5.914116 -0.000000 0.000000 0.000000 -8.428757 -5.134291 4.526346 14.791997 -1.633396 -13.621192 0.010211 -0.029281 0.534969 -15.586082 0.660441 -6.007308 0.181159 0.000000 -0.050481 0.368828 -12.917256 13.100379 65.502368 0.000004 0.000010 -0.181159 0.000000 -0.050481 -67.121649 14.705759 -7.721519 41.871867 -0.000000 -0.000006 0.527889 0.008039 0.790989 -19.424066 -7.806683 -23.766943 -55.403377 -0.000005 0.000006 -0.520107 0.007490 0.800136 70.349016 14.449059 2.089085 -72.561409 0.000007 -0.000008 0.477614 -0.522953 0.256560 -73.791513 19.944533 -16.055779 0.000000 0.486035 0.440368 0.000000 -0.000001 0.000000 -0.642189 0.373363 0.240033 4.368659 -1.333808 9.365435 -0.000000 0.486035 0.440368 0.000002 -0.000000 -0.000000 
